<?xml version="1.0" encoding="utf-8"?>
<!-- Generator: Adobe Illustrator 23.0.2, SVG Export Plug-In . SVG Version: 6.00 Build 0)  -->
<svg version="1.1" id="Layer_1" xmlns="http://www.w3.org/2000/svg" xmlns:xlink="http://www.w3.org/1999/xlink" x="0px" y="0px"
	 viewBox="0 0 422 422" style="enable-background:new 0 0 422 422;" xml:space="preserve">
<style type="text/css">
	.st0{fill:#6D849B;}
</style>
<g id="XMLID_1_">
	<g>
		<path class="st0" d="M419.8,51.5c6.4,24-0.6,49.7-18.3,67.2c-0.1,0.1-0.2,0.2-0.4,0.4l-47.7,43.1L396.6,315
			c5.8,20.9,0,43.3-15.4,58.6l-36.6,36.6c-2.2,2.2-5.4,3.3-8.5,2.8c-3.1-0.5-5.9-2.4-7.4-5.1l-81.2-150l-74.4,67.4
			c-3.6,3.2-5.1,8.2-3.8,12.9l11.3,42.3c4.4,16.6-4.6,33.7-20.7,39.5c-16.1,5.8-34-1.8-41.1-17.4l-28.8-63.4
			c-1.3-2.9-3.6-5.1-6.4-6.4l-63.4-28.8c-8.5-3.9-14.9-11.1-17.8-20c-2.8-8.9-1.7-18.5,3-26.6l0.1-0.1c7.5-12.7,22.4-18.9,36.6-15.3
			l41.6,10.7c4.7,1.2,9.6-0.3,12.8-3.8l67.2-74.2L16.9,96.1c-2.8-1.5-4.7-4.2-5.2-7.3c-0.5-3.1,0.6-6.3,2.8-8.5l36.6-36.6
			C66.5,28.3,89,22.4,109.9,28.3l148.3,42.2L303.1,21c0.1-0.1,0.2-0.3,0.3-0.4c17.5-17.7,43.1-24.7,67.2-18.3
			C394.6,8.7,413.4,27.5,419.8,51.5z M387.5,104.4c19.1-19.3,19-50.4-0.2-69.6s-50.3-19.3-69.6-0.2L111.4,262.4
			c-8.2,9.1-20.8,12.9-32.6,9.8l-41.6-10.7c-1-0.3-2.1-0.4-3.2-0.4c-4.6,0-8.9,2.4-11.2,6.4l-0.1,0.1c-1.9,3.2-2.3,7-1.2,10.4
			c1.1,3.5,3.6,6.4,7,7.9l63.4,28.8c7.3,3.3,13.1,9.1,16.3,16.4l28.8,63.4c1.5,3.3,4.4,5.9,7.9,7c3.5,1.1,7.3,0.7,10.4-1.2
			c5-2.9,7.4-8.9,6-14.5l-11.3-42.3c-3.2-11.9,0.5-24.6,9.7-32.9L387.5,104.4z M367.2,359.5c10.2-10.2,14.1-25.1,10.2-39.1
			l-40.5-143.3l-74,67L340,386.7L367.2,359.5z M177.7,159.5l65.6-72.4L104.4,47.5c-13.9-3.9-28.9,0-39.1,10.2L38.2,84.8L177.7,159.5
			z"/>
	</g>
	<g>
	</g>
</g>
</svg>
