<?xml version="1.0" encoding="utf-8"?>
<!-- Generator: Adobe Illustrator 23.0.2, SVG Export Plug-In . SVG Version: 6.00 Build 0)  -->
<svg version="1.1" id="Capa_1" xmlns="http://www.w3.org/2000/svg" xmlns:xlink="http://www.w3.org/1999/xlink" x="0px" y="0px"
	 viewBox="0 0 487 487" style="enable-background:new 0 0 487 487;" xml:space="preserve">
<style type="text/css">
	.st0{fill:#6D849B;}
</style>
<g>
	<g id="XMLID_1_">
		<g>
			<path class="st0" d="M482.1,256.1c4.8,4.8,6.2,12.2,3.7,18.4c-2.5,6.2-8.8,10.5-15.6,10.5H422v158.7c0,9.4-7.6,17-17,17H294.5
				c-9.3,0-17-7.6-17-17V327.5h-70.8v116.2c0,9.3-7.7,17-17,17H73.5c-9.3,0-17-7.7-17-17V285H16.8c-6.8,0-13-4-15.6-10.5
				c-2.5-6.5-1.1-13.9,4-18.7L236.7,31.1c6.5-6.5,17.3-6.2,23.8,0.3L482.1,256.1z M429.4,251L248,67.4L58.8,251h14.7
				c9.3,0,17,7.6,17,17v158.7h82.2V310.5c0-9.4,7.6-17,17-17h104.8c9.4,0,17,7.6,17,17v116.2H388V268c0-9.4,7.7-17,17-17H429.4z"/>
		</g>
		<g>
		</g>
	</g>
</g>
</svg>
