<?xml version="1.0" encoding="utf-8"?>
<!-- Generator: Adobe Illustrator 23.0.2, SVG Export Plug-In . SVG Version: 6.00 Build 0)  -->
<svg version="1.1" id="Capa_1" xmlns="http://www.w3.org/2000/svg" xmlns:xlink="http://www.w3.org/1999/xlink" x="0px" y="0px"
	 viewBox="0 0 483.3 483.3" style="enable-background:new 0 0 483.3 483.3;" xml:space="preserve">
<style type="text/css">
	.st0{fill:#6D849B;}
</style>
<g>
	<g id="XMLID_1_">
		<g>
			<path class="st0" d="M483.3,116.9v249.5c0,32.6-26.5,59.1-59.1,59.1H59.1C26.5,425.5,0,399,0,366.5V116.8
				c0-32.6,26.5-59.1,59.1-59.1h365.2C456.9,57.8,483.4,84.3,483.3,116.9z M456.4,366.5h-0.1V116.9c0-17.7-14.4-32.1-32.1-32.1H59.1
				C41.4,84.8,27,99.3,27,116.9v249.5c0,17.7,14.4,32.1,32.1,32.1h365.2C442,398.5,456.4,384.1,456.4,366.5z"/>
			<path class="st0" d="M423.5,351.3c5.4,5.1,5.6,13.7,0.5,19.1c-2.7,2.8-6.2,4.2-9.8,4.2c-3.3,0-6.7-1.2-9.3-3.7L284.7,256.6
				L251,286.9c-2.5,2.3-5.8,3.5-9,3.5s-6.4-1.1-9-3.4l-32.8-29.3L79.3,370.8c-2.6,2.4-5.9,3.6-9.2,3.6c-3.6,0-7.2-1.5-9.9-4.3
				c-5.1-5.5-4.8-14,0.6-19.1l119.1-111.5L60.3,132.6c-5.6-5-6.1-13.5-1.1-19.1c5-5.6,13.5-6.1,19.1-1.1l129.4,115.8
				c0.8,0.6,1.5,1.2,2.2,1.9c0,0.1,0.1,0.2,0.2,0.3l31.8,28.4l163-146.3c5.6-5,14.1-4.5,19.1,1c5,5.6,4.5,14.1-1,19.1l-118.2,106
				L423.5,351.3z"/>
		</g>
		<g>
		</g>
	</g>
</g>
</svg>
