<?xml version="1.0" encoding="utf-8"?>
<!-- Generator: Adobe Illustrator 23.0.2, SVG Export Plug-In . SVG Version: 6.00 Build 0)  -->
<svg version="1.1" id="Layer_1" xmlns="http://www.w3.org/2000/svg" xmlns:xlink="http://www.w3.org/1999/xlink" x="0px" y="0px"
	 viewBox="0 0 24 24" style="enable-background:new 0 0 24 24;" xml:space="preserve">
<style type="text/css">
	.st0{fill:#6D849B;}
</style>
<g>
	<g id="XMLID_1_">
		<g>
			<path class="st0" d="M15.9,9.9l-5,5c-0.2,0.2-0.5,0.2-0.7,0l-2-2c-0.2-0.2-0.2-0.5,0-0.7c0.2-0.2,0.5-0.2,0.7,0l1.6,1.6l4.6-4.6
				c0.2-0.2,0.5-0.2,0.7,0C16,9.3,16,9.7,15.9,9.9z"/>
			<path class="st0" d="M13.5,4h-3C10.2,4,10,4.2,10,4.5S9.8,5,9.5,5S9,4.8,9,4.5C9,3.7,9.7,3,10.5,3h3C14.3,3,15,3.7,15,4.5
				C15,4.8,14.8,5,14.5,5S14,4.8,14,4.5S13.8,4,13.5,4z"/>
			<path class="st0" d="M17.5,21h-11C5.1,21,4,19.9,4,18.5v-12C4,5.1,5.1,4,6.5,4C6.8,4,7,4.2,7,4.5S6.8,5,6.5,5C5.7,5,5,5.7,5,6.5
				v12C5,19.3,5.7,20,6.5,20h11c0.8,0,1.5-0.7,1.5-1.5v-12C19,5.7,18.3,5,17.5,5C17.2,5,17,4.8,17,4.5S17.2,4,17.5,4
				C18.9,4,20,5.1,20,6.5v12C20,19.9,18.9,21,17.5,21z"/>
		</g>
		<g>
		</g>
	</g>
</g>
</svg>
